<svg width="82" height="24" viewBox="0 0 82 24" fill="none" xmlns="http://www.w3.org/2000/svg">
<path fill-rule="evenodd" clip-rule="evenodd" d="M81.1149 23.6968V0H76.7293V23.6968H81.1149ZM22.1024 1.78863C20.1796 1.20195 18.0735 0.909474 15.7895 0.909474C13.506 0.909474 11.3939 1.20181 9.45854 1.78804C7.5229 2.37434 5.84722 3.19303 4.43773 4.24281C3.02879 5.29219 1.93571 6.51955 1.16175 7.92056C0.38691 9.32315 0 10.8362 0 12.4547C0 14.0733 0.38691 15.5863 1.16175 16.9889C1.93571 18.3899 3.02879 19.6173 4.43773 20.6667C5.84722 21.7164 7.5229 22.5351 9.45854 23.1214C11.3939 23.7077 13.506 24 15.7895 24C18.0735 24 20.1796 23.7075 22.1024 23.1208C24.023 22.5349 25.6969 21.717 27.1183 20.6689C28.5418 19.6191 29.6426 18.391 30.4172 16.9889C31.192 15.5863 31.5789 14.0733 31.5789 12.4547C31.5789 10.8362 31.192 9.32315 30.4172 7.92056C29.6426 6.51847 28.5418 5.29036 27.1183 4.24062C25.6969 3.19244 24.023 2.37462 22.1024 1.78863ZM65.7926 7.00788C64.6814 6.45778 63.4185 6.18442 62.0109 6.18442C60.2503 6.18442 58.6751 6.56334 57.2951 7.32393C55.9133 8.08555 54.8251 9.13554 54.0397 10.4664C53.2527 11.7997 52.8606 13.3355 52.8606 15.0619C52.8606 16.7831 53.235 18.3237 53.9862 19.6738C54.7387 21.0262 55.78 22.0893 57.1018 22.8541C58.4236 23.6187 59.9324 24 61.6168 24C62.6354 24 63.5893 23.8474 64.4758 23.5409C65.3494 23.2389 66.1256 22.8481 66.8026 22.3677L67.1291 22.1257L67.2909 21.9928V23.6968H71.6766V6.51789H67.2909V7.91116L67.2621 7.88906L66.9259 7.65529C66.5794 7.42604 66.2015 7.21031 65.7926 7.00788ZM32.5289 6.51789H37.4237L42.5773 17.6135L47.9006 6.51789H52.6539L44.0808 23.6968H40.8075L32.5289 6.51789ZM62.3444 10.3276C61.3365 10.3276 60.4564 10.5397 59.6942 10.9611C58.9332 11.3819 58.3492 11.9438 57.9323 12.6534C57.5155 13.3628 57.3069 14.1617 57.3069 15.0619C57.3069 16.0035 57.5162 16.8227 57.9323 17.531C58.3492 18.2406 58.9332 18.8025 59.6942 19.2233C60.4564 19.6447 61.3365 19.8568 62.3444 19.8568C63.3523 19.8568 64.2324 19.6447 64.9946 19.2233C65.7572 18.8016 66.3474 18.238 66.7746 17.526C67.199 16.8187 67.4122 16.0015 67.4122 15.0619C67.4122 14.1638 67.1997 13.3668 66.7746 12.6584C66.3474 11.9464 65.7572 11.3828 64.9946 10.9611C64.2324 10.5397 63.3523 10.3276 62.3444 10.3276ZM12.5301 6.29013C13.9432 5.66851 15.5979 5.35579 17.5074 5.35579C19.365 5.35579 21.0012 5.66838 22.4289 6.29124C23.857 6.91423 24.9682 7.75477 25.7744 8.81999C26.5784 9.88237 26.9811 11.0899 26.9811 12.4547C26.9811 13.7996 26.5783 15.0029 25.7728 16.0764C24.9666 17.151 23.8559 17.9957 22.4289 18.6182C21.0012 19.2411 19.365 19.5537 17.5074 19.5537C15.5979 19.5537 13.9432 19.241 12.5301 18.6193C11.1155 17.997 10.0173 17.1574 9.22359 16.093C8.43086 15.0299 8.03368 13.821 8.03368 12.4547C8.03368 11.0885 8.43086 9.87959 9.22359 8.81647C10.0173 7.75209 11.1155 6.91244 12.5301 6.29013Z" fill="black"/>
</svg>
